<?xml version="1.0" encoding="iso-8859-1"?>
<!-- Generator: Adobe Illustrator 16.0.0, SVG Export Plug-In . SVG Version: 6.00 Build 0)  -->
<!DOCTYPE svg PUBLIC "-//W3C//DTD SVG 1.1//EN" "http://www.w3.org/Graphics/SVG/1.1/DTD/svg11.dtd">
<svg version="1.1" id="Capa_1" xmlns="http://www.w3.org/2000/svg" xmlns:xlink="http://www.w3.org/1999/xlink" x="0px" y="0px"
	viewBox="0 0 153.57 153.57" style="enable-background:new 0 0 153.57 153.57;"
	 xml:space="preserve">
<g>
	<path d="M41.235,112.624c0,1.549-1.247,2.802-2.801,2.802c-7.122,0-20.114-12.689-25.542-28.443
		c-0.506-1.467,0.273-3.054,1.742-3.558c1.461-0.52,3.059,0.274,3.562,1.741c5.11,14.829,16.86,24.656,20.238,24.656
		C39.993,109.822,41.235,111.082,41.235,112.624z M153.569,107.848c-0.036,1.516-1.278,2.735-2.802,2.735c-0.021,0-0.05,0-0.069,0
		L134.66,110.2l9.926,7.786c1.214,0.952,1.421,2.71,0.469,3.93c-0.558,0.711-1.379,1.072-2.21,1.072
		c-0.603,0-1.219-0.195-1.735-0.591l-13.192-10.353c-2.917,9.153-13.992,13.816-33.127,13.816c-0.995,0-2.009-0.011-3.076-0.033
		c-10.271-0.241-20.762-1.735-29.46-4.295c-4.225,2.839-8.315,4.322-12.075,4.322c-1.828,0-3.586-0.339-5.238-1.022
		c-0.516-0.214-1.027-0.466-1.529-0.783c-0.521,0.317-1.032,0.574-1.529,0.783c-3.807,1.569-8.283,1.308-12.94-0.794
		c-10.415-4.7-21.556-18.501-26.486-32.81c-6.063-17.527-0.778-31.208,14.5-37.534c9.062-3.748,17.237-3.003,23.654,1.99V30.513
		c0-1.55,1.26-2.803,2.802-2.803c1.541,0,2.801,1.253,2.801,2.803V38.2c1.562-2.602,3.721-5.253,6.663-7.056
		c2.812-1.721,6.168-2.589,9.969-2.589c4.291,0,7.669,1.139,7.823,1.183c1.348,0.465,2.144,1.877,1.818,3.278
		c-0.101,0.438-2.539,10.826-10.164,15.504c-2.823,1.721-6.187,2.589-9.992,2.589c-2.566,0-4.699-0.392-6.117-0.733v5.305
		c6.416-5.004,14.591-5.743,23.652-1.984c3.149,1.3,5.754,2.988,8.054,4.881l-3.282-16.121c-0.055-0.213-0.011-0.41,0-0.615
		c-0.232-0.539-0.386-1.101-0.386-1.716c0-8.726,24.799-9.167,29.766-9.167c4.968,0,29.762,0.442,29.762,9.167
		c0,0.621-0.153,1.193-0.383,1.737c0,0.224,0.032,0.443-0.022,0.673l-11.655,51.248c3.212,2.26,5.407,5.039,6.369,8.422
		l14.577-9.527c1.288-0.837,3.026-0.486,3.875,0.815c0.842,1.291,0.486,3.031-0.821,3.875l-11.048,7.223l16.17,0.383
		C152.384,105.019,153.607,106.311,153.569,107.848z M49.031,45.248c0.945,0.145,2.084,0.268,3.317,0.268
		c2.756,0,5.145-0.587,7.071-1.764c3.609-2.208,5.72-6.501,6.773-9.297c-0.951-0.15-2.09-0.279-3.327-0.279
		c-2.758,0-5.132,0.593-7.051,1.765C52.231,38.137,50.088,42.44,49.031,45.248z M116.59,91.034l10.134-44.52
		c-7.725,2.578-19.458,2.783-22.708,2.783c-3.272,0-15.114-0.205-22.841-2.829l5.023,24.643c0.082,0.383,0.071,0.764-0.004,1.123
		c0.901,4.417,0.683,9.375-0.636,14.749c1.266-0.033,2.527-0.065,3.797-0.065c1.073,0,2.167,0.013,3.264,0.044
		C102.789,87.201,110.693,88.602,116.59,91.034z M80.425,40.137c2.496,1.456,10.607,3.557,23.573,3.557
		c12.975,0,21.09-2.101,23.598-3.557c-2.508-1.461-10.623-3.562-23.598-3.562C91.026,36.574,82.937,38.675,80.425,40.137z
		 M55.306,119.064c-8.058-3.429-13.352-8.082-13.212-13.845c0.229-10.357,17.869-16.442,37.647-17.926
		c5.039-17.168-3.614-24.936-12.013-28.407c-6.381-2.646-15.38-3.855-22.031,5.423c-0.04,0.052-0.096,0.068-0.129,0.113
		c-0.516,0.633-1.266,1.058-2.147,1.058c-0.866,0-1.63-0.424-2.139-1.053c-0.047-0.049-0.112-0.06-0.128-0.112
		c-6.658-9.278-15.651-8.068-22.039-5.428C10.363,62.506,1.3,70.737,7.774,89.413c4.391,12.786,14.5,25.481,23.483,29.537
		c3.25,1.472,6.101,1.718,8.496,0.724c0.582-0.242,1.214-0.631,1.947-1.205c1.02-0.806,2.444-0.806,3.459,0
		c0.733,0.574,1.367,0.963,1.945,1.205C49.752,120.767,52.661,120.213,55.306,119.064z M123.14,107.125
		c0.16-7.117-6.106-11.645-18.534-13.543l-0.169,7.584c-0.033,1.521-1.284,2.736-2.802,2.736c-0.022,0-0.05,0-0.07,0
		c-1.539-0.038-2.764-1.313-2.731-2.867l0.183-8.127c-2.064-0.169-4.226-0.295-6.556-0.344c-1.051-0.033-2.097-0.045-3.132-0.045
		c-1.159,0-2.287,0.033-3.414,0.056l-0.182,8.143c-0.038,1.521-1.285,2.735-2.801,2.735c-0.028,0-0.048,0-0.071,0
		c-1.537-0.038-2.769-1.312-2.73-2.867l0.172-7.749c-4.039,0.29-7.805,0.771-11.233,1.401l-0.18,7.989
		c-0.033,1.521-1.284,2.735-2.802,2.735c-0.023,0-0.045,0-0.065,0c-1.541-0.043-2.769-1.312-2.736-2.867l0.152-6.621
		c-9.757,2.53-15.685,6.299-15.757,9.844c-0.128,5.779,16.613,14.233,44.172,14.879C112.537,120.722,122.932,116.29,123.14,107.125z
		"/>
</g>
<g>
</g>
<g>
</g>
<g>
</g>
<g>
</g>
<g>
</g>
<g>
</g>
<g>
</g>
<g>
</g>
<g>
</g>
<g>
</g>
<g>
</g>
<g>
</g>
<g>
</g>
<g>
</g>
<g>
</g>
</svg>
