<?xml version='1.0' encoding='iso-8859-1'?>
<svg version="1.1" xmlns="http://www.w3.org/2000/svg" viewBox="0 0 470 470" xmlns:xlink="http://www.w3.org/1999/xlink" enable-background="new 0 0 470 470">
  <g>
    <path d="m366.417,30h-262.826c-32.14,0-58.287,26.147-58.287,58.287 0,17.059 7.356,33.149 20.184,44.146l7.855,6.735v26.551c0,4.142 3.358,7.5 7.5,7.5s7.5-3.358 7.5-7.5v-30c0-2.189-0.957-4.269-2.619-5.694l-10.474-8.979c-9.499-8.144-14.946-20.083-14.946-32.758 0-23.87 19.419-43.288 43.287-43.288h262.825c23.868,0 43.286,19.418 43.286,43.287 0,12.675-5.448,24.614-14.946,32.758l-10.474,8.979c-1.662,1.425-2.619,3.505-2.619,5.694v257.263c0,17.655-14.363,32.019-32.019,32.019h-229.281c-17.656,0-32.02-14.363-32.02-32.019v-197.263c0-4.142-3.358-7.5-7.5-7.5s-7.5,3.358-7.5,7.5v197.263c0,25.926 21.093,47.019 47.02,47.019h229.282c25.926,0 47.019-21.092 47.019-47.019v-253.814l7.855-6.735c12.827-10.997 20.184-27.087 20.184-44.146-5.68434e-14-32.139-26.147-58.286-58.286-58.286z"/>
    <circle cx="284.805" cy="384.143" r="7.5"/>
    <circle cx="346.899" cy="287.79" r="7.5"/>
    <circle cx="152.33" cy="79.765" r="7.5"/>
    <path d="m322.811,129.809h-115.615c-4.142,0-7.5,3.358-7.5,7.5s3.358,7.5 7.5,7.5h115.614c4.142,0 7.5-3.358 7.5-7.5s-3.357-7.5-7.499-7.5z"/>
    <path d="m139.696,137.309c0,4.142 3.358,7.5 7.5,7.5h30c4.142,0 7.5-3.358 7.5-7.5s-3.358-7.5-7.5-7.5h-30c-4.142,0-7.5,3.358-7.5,7.5z"/>
    <path d="m322.811,227.5h-30c-4.142,0-7.5,3.358-7.5,7.5s3.358,7.5 7.5,7.5h30c4.142,0 7.5-3.358 7.5-7.5s-3.358-7.5-7.5-7.5z"/>
    <path d="m147.196,242.5h115.614c4.142,0 7.5-3.358 7.5-7.5s-3.358-7.5-7.5-7.5h-115.614c-4.142,0-7.5,3.358-7.5,7.5s3.358,7.5 7.5,7.5z"/>
    <path d="m147.196,340.191h175.614c4.142,0 7.5-3.358 7.5-7.5s-3.358-7.5-7.5-7.5h-175.614c-4.142,0-7.5,3.358-7.5,7.5s3.358,7.5 7.5,7.5z"/>
    <path d="m431.992,271.248c18.077-14.919 28.603-36.976 28.603-60.867 0-24.364-10.946-46.821-29.685-61.745 15.216-16.216 23.793-37.731 23.793-60.349-5.68434e-14-48.682-39.605-88.287-88.286-88.287h-262.826c-48.681,0-88.287,39.605-88.287,88.287-1.77636e-15,22.618 8.576,44.131 23.792,60.348-18.741,14.924-29.688,37.382-29.688,61.747 0,23.891 10.525,45.947 28.601,60.866-18.077,14.919-28.603,36.976-28.603,60.867 0,26.199 12.657,50.191 34.05,64.984 2.148,40.561 35.82,72.901 76.907,72.901h229.282c41.089,0 74.763-32.344 76.906-72.909 21.388-14.793 34.041-38.783 34.041-64.977 0-23.89-10.524-45.947-28.6-60.866zm13.602-60.867c0,17.403-6.893,33.609-18.931,45.49v-90.981c12.038,11.881 18.931,28.087 18.931,45.491zm-421.186,.001c-1.42109e-14-17.406 6.895-33.614 18.936-45.495v90.991c-12.041-11.883-18.936-28.09-18.936-45.496zm-.002,121.733c0-17.407 6.895-33.615 18.938-45.497v90.995c-12.043-11.882-18.938-28.091-18.938-45.498zm387.258,60.866c0,34.197-27.821,62.019-62.019,62.019h-229.282c-34.198,0-62.02-27.821-62.02-62.019v-243.466c0-0.072-0.01-0.142-0.012-0.213-0.004-0.139-0.011-0.277-0.023-0.415-0.01-0.118-0.022-0.234-0.037-0.351-0.018-0.141-0.042-0.281-0.069-0.421-0.022-0.114-0.043-0.227-0.07-0.34-0.033-0.137-0.072-0.272-0.113-0.407-0.034-0.114-0.067-0.229-0.107-0.341-0.043-0.122-0.094-0.243-0.144-0.364-0.05-0.123-0.099-0.246-0.156-0.365-0.047-0.099-0.103-0.196-0.155-0.294-0.072-0.135-0.141-0.271-0.221-0.401-0.068-0.114-0.124-0.184-0.174-0.26-0.086-0.129-0.17-0.259-0.265-0.383-0.095-0.125-0.199-0.24-0.301-0.358-0.066-0.076-0.127-0.156-0.196-0.23-0.18-0.191-0.369-0.371-0.565-0.541-16.166-13.861-25.432-34.102-25.432-55.544 0.001-40.411 32.878-73.287 73.288-73.287h262.825c40.41,0 73.286,32.876 73.286,73.287 0,21.44-9.263,41.678-25.415,55.528-0.399,0.341-0.766,0.729-1.093,1.161-0.06,0.078-0.111,0.162-0.168,0.242-0.081,0.115-0.165,0.226-0.24,0.347-0.011,0.018-0.019,0.037-0.03,0.055-0.058,0.095-0.108,0.195-0.161,0.293-0.074,0.135-0.149,0.269-0.214,0.406-0.041,0.088-0.076,0.178-0.114,0.267-0.066,0.155-0.13,0.309-0.185,0.466-0.029,0.083-0.052,0.167-0.078,0.25-0.052,0.167-0.1,0.335-0.14,0.504-0.02,0.084-0.036,0.169-0.052,0.254-0.034,0.171-0.063,0.342-0.084,0.514-0.011,0.089-0.02,0.178-0.028,0.268-0.015,0.17-0.024,0.34-0.028,0.51-0.001,0.055-0.009,0.108-0.009,0.163v243.466zm15.001-15.378v-90.977c12.036,11.881 18.929,28.086 18.929,45.488-0.001,17.403-6.893,33.608-18.929,45.489z"/>
  </g>
</svg>
