<?xml version='1.0' encoding='iso-8859-1'?>
<svg version="1.1" xmlns="http://www.w3.org/2000/svg" viewBox="0 0 410.272 410.272" xmlns:xlink="http://www.w3.org/1999/xlink" enable-background="new 0 0 410.272 410.272">
  <path d="m200.815,207.152c3.905,3.905 3.906,10.237 0,14.143l-34.646,34.647c-1.953,1.952-4.512,2.929-7.071,2.929s-5.118-0.977-7.071-2.929c-3.905-3.905-3.906-10.237 0-14.143l34.646-34.647c3.905-3.904 10.237-3.904 14.142,0zm-113.845-112.3h113.461c3.322,0 6.128,2.807 6.128,6.128 0,3.322-2.807,6.129-6.128,6.129h-64.229c-14.406,0-26.127,11.721-26.127,26.128v16.129c0,5.522 4.477,10 10,10s10-4.478 10-10v-16.129c0-3.321 2.806-6.128 6.127-6.128h64.229c14.407,0 26.128-11.722 26.128-26.129s-11.721-26.128-26.128-26.128h-113.461c-3.322,0-6.129-2.807-6.129-6.128 0-3.322 2.807-6.129 6.129-6.129h70.443c14.407,0 26.128-11.721 26.128-26.128 0-5.522-4.477-10-10-10s-10,4.478-10,10c0,3.321-2.806,6.128-6.128,6.128h-70.443c-14.408,0-26.129,11.722-26.129,26.129s11.722,26.128 26.129,26.128zm323.302,237.597c-5.68434e-14,5.522-4.477,10-10,10h-27.713c-0.061,0-0.122,0-0.182,0h-48.795l-31.254,51.672c-1.812,2.994-5.057,4.824-8.557,4.824h-156.218c-3.5,0-6.745-1.83-8.557-4.824l-31.255-51.672h-36.501c-0.128,0.002-0.257,0.002-0.385,0h-39.804c-5.523,0-10-4.478-10-10s4.477-10 10-10h26.6c-0.147-1.386-0.222-2.78-0.222-4.179 0-13.07 6.29-24.949 16.586-32.262-0.512-2.554-0.769-5.165-0.769-7.82 0-10.329 3.972-19.745 10.47-26.805l-7.792-18.095c-0.021,0-0.042,0-0.064,0-20.495,0-40.804-14.392-50.432-36.753-10.934-25.389-4.939-53.726 14.255-67.378 1.154-0.821 2.469-1.388 3.859-1.662 23.107-4.563 47.815,10.552 58.749,35.943 9.639,22.383 6.122,47.056-7.998,61.939l6.492,15.076c3.809-1.222 7.866-1.882 12.075-1.882 19.475,0 35.712,14.124 39.005,32.667 0.114-0.001 0.228-0.001 0.341-0.001 21.843,0 39.614,17.771 39.614,39.615 0,3.956-0.601,7.864-1.747,11.595h121.857c4.05-8.437 6.832-17.406 8.288-26.737l27.16-174.079-33.465-5.222-24.763,68.334c-1.63,4.497-6.221,7.203-10.943,6.474l-38.684-6.034c-36.87-5.752-74.27,10.65-95.27,41.786-3.088,4.579-9.303,5.787-13.882,2.699-4.579-3.089-5.787-9.304-2.699-13.883 25.317-37.537 70.434-57.308 114.933-50.364l30.546,4.766 36.784-101.507c-8.142-7.292-12.364-18.437-10.627-29.579 1.352-8.664 5.997-16.283 13.08-21.454 7.083-5.171 15.755-7.274 24.419-5.921 5.401,0.842 10.435,2.992 14.712,6.225 5.059-1.774 10.512-2.29 15.912-1.447 17.884,2.792 30.163,19.612 27.374,37.496-1.825,11.704-9.895,21.391-20.623,25.562l-34.205,219.23c-1.269,8.138-3.374,16.048-6.289,23.655h53.408c2.01-3.767 3.056-7.956 3.056-12.326 0-14.497-11.795-26.292-26.293-26.292-5.523,0-10-4.478-10-10s4.477-10 10-10c25.526,0 46.293,20.767 46.293,46.292 0,4.228-0.557,8.36-1.646,12.326h11.765c5.524,0.002 10.001,4.479 10.001,10.002zm-79.811-230.577l4.966-31.83c0.686-4.393 4.189-7.806 8.599-8.376 5.614-0.726 10.146-5.145 11.02-10.747 1.09-6.988-3.709-13.562-10.697-14.652-3.199-0.499-6.442,0.221-9.131,2.027-4.333,2.914-10.179,1.999-13.419-2.097-2.008-2.538-4.874-4.21-8.071-4.708-3.389-0.526-6.777,0.292-9.545,2.313-2.768,2.021-4.583,4.997-5.111,8.382-0.87,5.583 2.083,11.166 7.183,13.577 4.664,2.205 6.885,7.597 5.127,12.447l-10.525,29.043 29.604,4.621zm-265.534,101.753c3.893-9.149 3.777-21.173-1.004-32.275-6.743-15.66-21.189-25.847-34.354-24.549-9.975,8.672-12.514,26.166-5.77,41.826 4.78,11.103 13.438,19.449 22.759,22.908l-12.228-28.396c-2.185-5.072 0.157-10.955 5.229-13.14 5.075-2.184 10.955,0.158 13.14,5.229l12.228,28.397zm83.109,118.824c2.461-3.336 3.786-7.347 3.786-11.595 0-10.815-8.799-19.615-19.614-19.615-2.309,0-4.565,0.396-6.706,1.175-3.337,1.213-7.069,0.568-9.803-1.7-2.734-2.267-4.061-5.814-3.484-9.319 0.174-1.058 0.262-2.137 0.262-3.206 0-10.815-8.799-19.615-19.615-19.615-3.958,0-7.647,1.179-10.733,3.204-0.367,0.303-0.758,0.581-1.174,0.833-4.683,3.588-7.708,9.236-7.708,15.578 0,2.914 0.622,5.714 1.848,8.322 1.172,2.492 1.264,5.357 0.254,7.92-1.01,2.563-3.031,4.596-5.588,5.619-7.491,2.998-12.332,10.15-12.332,18.221 0,1.427 0.147,2.822 0.44,4.179h90.167zm152.171,19.999h-2.019c-0.126,0.002-0.252,0.002-0.378,0h-186.694l22.075,36.496h144.941l22.075-36.496zm-65.99-37.286c1.953,1.952 4.512,2.929 7.071,2.929s5.119-0.977 7.071-2.929l34.646-34.647c3.905-3.905 3.905-10.237 0-14.143-3.905-3.904-10.237-3.904-14.142,0l-34.646,34.647c-3.905,3.905-3.905,10.237 2.84217e-14,14.143zm8.634-87.744l-55.468,55.469c-3.905,3.905-3.905,10.237 0,14.143 1.953,1.952 4.512,2.929 7.071,2.929s5.119-0.977 7.071-2.929l55.468-55.469c3.905-3.905 3.905-10.237 0-14.143-3.905-3.905-10.237-3.905-14.142-5.68434e-14z"/>
</svg>
