<?xml version="1.0" encoding="iso-8859-1"?>
<!-- Generator: Adobe Illustrator 18.1.1, SVG Export Plug-In . SVG Version: 6.00 Build 0)  -->
<svg version="1.1" id="Capa_1" xmlns="http://www.w3.org/2000/svg" xmlns:xlink="http://www.w3.org/1999/xlink" x="0px" y="0px"
	 viewBox="0 0 483.856 483.856" style="enable-background:new 0 0 483.856 483.856;" xml:space="preserve">
<g>
	<g>
		<path style="fill:#010002;" d="M41.681,427.647v13.924h400.21v-13.924c0-93.544-64.525-172.269-151.395-194.078v-33.522
			c8.169-4.56,13.339-10.705,13.339-18.639c0-19.817-31.929-28.686-63.565-28.686s-63.565,8.868-63.565,28.686
			c0,6.844,3.869,12.347,10.153,16.664v37.213C103.141,259.215,41.681,336.363,41.681,427.647z M240.262,173.605
			c21.411,0,35.733,4.471,41.066,7.795c-2.211,1.382-6.048,2.943-11.209,4.316c-7.291,1.935-17.314,3.479-29.848,3.479
			c-12.534,0-22.557-1.544-29.848-3.479c-5.162-1.374-8.998-2.934-11.209-4.316C204.528,178.075,218.851,173.605,240.262,173.605z
			 M262.64,213.573v15.062c-6.861-0.715-13.81-1.089-20.858-1.089c-9.193,0-18.224,0.675-27.093,1.886v-15.859H262.64z
			 M205.504,259.288c11.705-2.52,23.833-3.894,36.278-3.894c12.445,0,24.573,1.374,36.278,3.894
			c73.198,15.761,129.277,78.148,135.414,154.435H70.09C76.227,337.436,132.298,275.049,205.504,259.288z"/>
		<path style="fill:#010002;" d="M114.277,377.534c5.471,8.462,15.144,13.941,24.621,13.941c9.787,0,18.184-5.698,22.476-15.233
			c9.819-21.833,27.808-38.009,58.323-52.421c11.364-5.373,16.981-16.542,14.306-28.458c-2.983-13.306-15.209-23.337-28.434-23.337
			c-4.202,0-8.364,0.959-12.364,2.845c-39.692,18.753-66.923,44.057-80.944,75.23C108.156,359.221,108.896,369.219,114.277,377.534z
			 M131.314,358.668c11.916-26.499,35.741-48.341,70.808-64.907c1.187-0.561,2.349-0.845,3.438-0.845
			c3.877,0,7.299,3.633,8.047,7.023c0.545,2.406-0.228,3.764-2.845,4.991c-23.784,11.242-53.063,28.531-68.451,62.745
			c-1.309,2.91-2.682,2.91-3.422,2.91c-2.105,0-5.219-1.512-7.088-4.398C130.274,363.805,130.111,361.342,131.314,358.668z"/>
		<rect x="41.819" y="456.008" style="fill:#010002;" width="400.357" height="27.848"/>
		<path style="fill:#010002;" d="M153.164,5.628c-10.234,15.721-13.518,31.425-9.754,49.796c3.812,18.606,17.98,34.855,7.722,53.844
			c-7.478,13.835,13.583,26.142,21.053,12.307c8.088-14.973,8.982-29.385,4.129-45.585c-6.527-21.817-16.151-36.457-2.097-58.054
			C182.825,4.709,161.707-7.492,153.164,5.628z"/>
		<path style="fill:#010002;" d="M234.45,5.628c-10.234,15.721-13.518,31.425-9.754,49.796c3.812,18.606,17.98,34.855,7.722,53.844
			c-7.478,13.835,13.583,26.142,21.053,12.307c8.088-14.973,8.982-29.385,4.129-45.585c-6.527-21.817-16.151-36.457-2.097-58.054
			C264.111,4.709,242.993-7.492,234.45,5.628z"/>
		<path style="fill:#010002;" d="M315.736,5.628c-10.234,15.721-13.518,31.425-9.754,49.796c3.812,18.606,17.98,34.855,7.722,53.844
			c-7.478,13.835,13.583,26.142,21.053,12.307c8.088-14.973,8.982-29.385,4.129-45.585c-6.527-21.817-16.151-36.457-2.097-58.054
			C345.397,4.709,324.279-7.492,315.736,5.628z"/>
	</g>
</g>
<g>
</g>
<g>
</g>
<g>
</g>
<g>
</g>
<g>
</g>
<g>
</g>
<g>
</g>
<g>
</g>
<g>
</g>
<g>
</g>
<g>
</g>
<g>
</g>
<g>
</g>
<g>
</g>
<g>
</g>
</svg>
