<?xml version="1.0" encoding="iso-8859-1"?>
<!-- Generator: Adobe Illustrator 19.0.0, SVG Export Plug-In . SVG Version: 6.00 Build 0)  -->
<svg version="1.1" id="Capa_1" xmlns="http://www.w3.org/2000/svg" xmlns:xlink="http://www.w3.org/1999/xlink" x="0px" y="0px"
	 viewBox="0 0 470 470" style="enable-background:new 0 0 470 470;" xml:space="preserve">
<g>
	<path d="M393.585,381.335h-72.109c-4.142,0-7.5,3.358-7.5,7.5s3.358,7.5,7.5,7.5h72.109c7.903,0,14.333,6.43,14.333,14.333
		c0,1.403-0.205,2.779-0.596,4.093c-4.101-2.183-8.776-3.426-13.737-3.426h-97.676c6.251-11.169,4.642-25.587-4.845-35.074
		l-82.656-82.656c-12.008-12.008-34.717-21.415-51.699-21.414H54.556c-4.142,0-7.5,3.358-7.5,7.5s3.358,7.5,7.5,7.5h102.153
		c13.047,0,31.865,7.794,41.092,17.021l82.656,82.656c5.588,5.588,5.588,14.681,0,20.27c-2.707,2.707-6.307,4.198-10.135,4.198
		c-3.829,0-7.428-1.491-10.135-4.198l-67.177-67.176c-2.929-2.929-7.678-2.929-10.606,0c-2.929,2.929-2.929,7.678,0,10.606
		l67.177,67.176c5.54,5.541,12.906,8.591,20.741,8.591h123.262c7.903,0,14.333,6.43,14.333,14.333S401.488,455,393.592,455
		l-137.644-0.122c-3.671-0.003-9.896-1.625-13.168-3.419l-139.902-86.394c-0.087-0.054-0.175-0.106-0.265-0.156
		c-5.478-3.08-14.347-5.402-20.632-5.402H54.556c-4.142,0-7.5,3.358-7.5,7.5s3.358,7.5,7.5,7.5h27.425
		c3.668,0,9.891,1.617,13.161,3.411l139.902,86.394c0.087,0.054,0.175,0.106,0.265,0.156c5.476,3.079,14.343,5.405,20.625,5.41
		L393.585,470c16.174,0,29.333-13.159,29.333-29.333c0-5.474-1.511-10.6-4.133-14.99c2.688-4.502,4.133-9.66,4.133-15.01
		C422.917,394.494,409.759,381.335,393.585,381.335z"/>
	<path d="M205.598,264.749c8.367,20.199,27.9,33.251,49.764,33.251c7.076,0,14.002-1.383,20.587-4.111
		c3.865-1.601,7.496-3.621,10.851-6.033c3.356,2.413,6.987,4.433,10.852,6.033c6.584,2.728,13.511,4.11,20.587,4.111
		c0.001,0,0,0,0.001,0c21.862,0,41.396-13.052,49.762-33.251l48.329-116.676c8.816-21.285,8.816-44.729,0-66.014
		c-8.817-21.285-25.395-37.862-46.679-46.679c-10.548-4.369-21.64-6.584-32.968-6.584c-14.875,0-29.502,3.906-42.384,11.153V7.5
		c0-4.142-3.358-7.5-7.5-7.5s-7.5,3.358-7.5,7.5v32.448c-12.882-7.247-27.509-11.152-42.384-11.152
		c-11.328,0-22.42,2.215-32.968,6.584c-21.285,8.816-37.862,25.394-46.679,46.679c-8.816,21.285-8.816,44.729,0,66.014
		L205.598,264.749z M171.128,87.799c7.283-17.583,20.978-31.277,38.561-38.561c8.719-3.612,17.88-5.443,27.228-5.443
		c16.385,0,32.417,5.718,45.142,16.101c2.761,2.252,6.724,2.252,9.483,0c12.726-10.383,28.758-16.101,45.143-16.101
		c9.348,0,18.509,1.831,27.228,5.443c17.583,7.283,31.278,20.978,38.561,38.561s7.283,36.95,0,54.533l-48.329,116.676
		C348.107,273.583,334.014,283,318.239,283c-5.096,0-10.091-0.999-14.848-2.969c-4.268-1.768-8.138-4.24-11.501-7.348
		c-1.437-1.328-3.264-1.992-5.09-1.992s-3.654,0.664-5.09,1.992c-3.362,3.107-7.232,5.58-11.501,7.348
		c-4.756,1.97-9.751,2.969-14.847,2.969c-15.775,0-29.869-9.417-35.905-23.991l-48.329-116.676
		C163.845,124.75,163.845,105.382,171.128,87.799z"/>
	<path d="M203.41,181.072c1.196,2.888,3.989,4.632,6.932,4.632c0.957,0,1.929-0.184,2.867-0.573
		c3.827-1.585,5.644-5.973,4.059-9.799l-18.424-44.48c-4.217-10.18-4.217-21.393,0-31.572s12.145-18.108,22.325-22.325
		c5.061-2.096,10.359-3.159,15.748-3.159c9.494,0,18.791,3.319,26.177,9.345c3.208,2.619,7.934,2.14,10.552-1.07
		c2.619-3.209,2.14-7.934-1.07-10.552c-10.056-8.205-22.72-12.723-35.659-12.723c-7.368,0-14.598,1.447-21.488,4.301
		c-13.881,5.75-24.692,16.562-30.443,30.443c-5.75,13.881-5.75,29.171,0,43.053L203.41,181.072z"/>
	<path d="M255.362,253c-3.598,0-6.812-2.148-8.189-5.472l-18.424-44.479c-1.585-3.827-5.972-5.644-9.799-4.059
		c-3.827,1.585-5.644,5.973-4.059,9.799l18.424,44.48c3.708,8.949,12.361,14.731,22.047,14.731c4.142,0,7.5-3.358,7.5-7.5
		S259.504,253,255.362,253z"/>
</g>
<g>
</g>
<g>
</g>
<g>
</g>
<g>
</g>
<g>
</g>
<g>
</g>
<g>
</g>
<g>
</g>
<g>
</g>
<g>
</g>
<g>
</g>
<g>
</g>
<g>
</g>
<g>
</g>
<g>
</g>
</svg>
