   
<?xml version="1.0" encoding="iso-8859-1"?>
<!-- Generator: Adobe Illustrator 16.0.0, SVG Export Plug-In . SVG Version: 6.00 Build 0)  -->
<!DOCTYPE svg PUBLIC "-//W3C//DTD SVG 1.1//EN" "http://www.w3.org/Graphics/SVG/1.1/DTD/svg11.dtd">
<svg version="1.1" id="Capa_1" xmlns="http://www.w3.org/2000/svg" xmlns:xlink="http://www.w3.org/1999/xlink" x="0px" y="0px"
 viewBox="0 0 616.121 616.121">
<g>
	<g>
		<path d="M27.235,50.809h561.65c14.188,0,25.175-10.986,25.175-25.175C614.061,12.363,603.074,0,588.886,0H27.235
			C13.046,0,2.061,12.363,2.061,25.634C2.061,39.823,13.046,50.809,27.235,50.809z"/>
		<path d="M27.235,164.33h350.632c14.189,0,25.176-10.986,25.176-25.175s-10.986-25.634-25.176-25.634H27.235
			c-14.189,0-25.175,11.445-25.175,25.634S13.046,164.33,27.235,164.33z"/>
		<path d="M588.886,226.125H27.235c-14.189,0-25.175,10.986-25.175,25.175s10.986,25.634,25.175,25.634h561.65
			c14.188,0,25.175-11.445,25.175-25.634S603.074,226.125,588.886,226.125z"/>
		<path d="M27.235,389.996h350.632c14.189,0,25.176-10.986,25.176-25.175s-10.986-25.175-25.176-25.175H27.235
			c-14.189,0-25.175,10.985-25.175,25.175S13.046,389.996,27.235,389.996z"/>
		<path d="M588.886,452.25H27.235c-14.189,0-25.175,10.985-25.175,25.175c0,14.188,10.986,25.175,25.175,25.175h561.65
			c14.188,0,25.175-10.986,25.175-25.175C614.061,463.235,603.074,452.25,588.886,452.25z"/>
		<path d="M377.867,565.312H27.235c-14.189,0-25.175,11.444-25.175,25.634c0,14.188,10.986,25.175,25.175,25.175h350.632
			c14.189,0,25.176-10.986,25.176-25.175C403.043,576.757,392.057,565.312,377.867,565.312z"/>
	</g>
</g>
<g>
</g>
<g>
</g>
<g>
</g>
<g>
</g>
<g>
</g>
<g>
</g>
<g>
</g>
<g>
</g>
<g>
</g>
<g>
</g>
<g>
</g>
<g>
</g>
<g>
</g>
<g>
</g>
<g>
</g>
</svg>

